<svg xmlns="http://www.w3.org/2000/svg" viewBox="0 0 1100 560" font-family="Helvetica, Arial, sans-serif"><defs></defs><rect x="0" y="0" width="1100" height="560" fill="#F7F5F0"/><text x="30" y="42" font-size="24" font-weight="bold" fill="#1E2530" font-family="Helvetica, Arial, sans-serif">ADC resolution: how finely an analog signal is digitized</text><text x="30" y="66" font-size="14" fill="#5A6270" font-family="Helvetica, Arial, sans-serif">More bits = more steps = smoother pedal input (given a clean, low-noise signal)</text><text x="260.0" y="94" font-size="15" fill="#1E2530" text-anchor="middle" font-weight="bold" font-style="normal" font-family="Helvetica, Arial, sans-serif">Low resolution (illustrative)</text><line x1="110" y1="370" x2="410" y2="370" stroke="#1E2530" stroke-width="1.5" stroke-linecap="butt"/><line x1="110" y1="110" x2="110" y2="370" stroke="#1E2530" stroke-width="1.5" stroke-linecap="butt"/><polyline points="110.0,328.3 111.5,326.7 113.0,325.0 114.5,323.3 116.0,321.5 117.5,319.6 119.0,317.7 120.5,315.7 122.0,313.7 123.5,311.7 125.0,309.6 126.5,307.5 128.0,305.3 129.5,303.1 131.0,300.8 132.5,298.5 134.0,296.2 135.5,293.8 137.0,291.4 138.5,289.0 140.0,286.5 141.5,284.0 143.0,281.5 144.5,278.9 146.0,276.3 147.5,273.7 149.0,271.1 150.5,268.5 152.0,265.8 153.5,263.2 155.0,260.5 156.5,257.8 158.0,255.0 159.5,252.3 161.0,249.6 162.5,246.9 164.0,244.1 165.5,241.4 167.0,238.6 168.5,235.9 170.0,233.1 171.5,230.4 173.0,227.7 174.5,225.0 176.0,222.2 177.5,219.5 179.0,216.8 180.5,214.2 182.0,211.5 183.5,208.9 185.0,206.3 186.5,203.7 188.0,201.1 189.5,198.5 191.0,196.0 192.5,193.5 194.0,191.0 195.5,188.6 197.0,186.2 198.5,183.8 200.0,181.5 201.5,179.2 203.0,176.9 204.5,174.7 206.0,172.5 207.5,170.4 209.0,168.3 210.5,166.3 212.0,164.3 213.5,162.3 215.0,160.4 216.5,158.5 218.0,156.7 219.5,155.0 221.0,153.3 222.5,151.7 224.0,150.1 225.5,148.5 227.0,147.1 228.5,145.7 230.0,144.3 231.5,143.0 233.0,141.8 234.5,140.6 236.0,139.5 237.5,138.5 239.0,137.5 240.5,136.6 242.0,135.7 243.5,134.9 245.0,134.2 246.5,133.6 248.0,133.0 249.5,132.5 251.0,132.0 252.5,131.7 254.0,131.4 255.5,131.1 257.0,130.9 258.5,130.8 260.0,130.8 261.5,130.8 263.0,130.9 264.5,131.1 266.0,131.4 267.5,131.7 269.0,132.0 270.5,132.5 272.0,133.0 273.5,133.6 275.0,134.2 276.5,134.9 278.0,135.7 279.5,136.6 281.0,137.5 282.5,138.5 284.0,139.5 285.5,140.6 287.0,141.8 288.5,143.0 290.0,144.3 291.5,145.7 293.0,147.1 294.5,148.5 296.0,150.1 297.5,151.7 299.0,153.3 300.5,155.0 302.0,156.7 303.5,158.5 305.0,160.4 306.5,162.3 308.0,164.3 309.5,166.3 311.0,168.3 312.5,170.4 314.0,172.5 315.5,174.7 317.0,176.9 318.5,179.2 320.0,181.5 321.5,183.8 323.0,186.2 324.5,188.6 326.0,191.0 327.5,193.5 329.0,196.0 330.5,198.5 332.0,201.1 333.5,203.7 335.0,206.3 336.5,208.9 338.0,211.5 339.5,214.2 341.0,216.8 342.5,219.5 344.0,222.2 345.5,225.0 347.0,227.7 348.5,230.4 350.0,233.1 351.5,235.9 353.0,238.6 354.5,241.4 356.0,244.1 357.5,246.9 359.0,249.6 360.5,252.3 362.0,255.0 363.5,257.8 365.0,260.5 366.5,263.2 368.0,265.8 369.5,268.5 371.0,271.1 372.5,273.7 374.0,276.3 375.5,278.9 377.0,281.5 378.5,284.0 380.0,286.5 381.5,289.0 383.0,291.4 384.5,293.8 386.0,296.2 387.5,298.5 389.0,300.8 390.5,303.1 392.0,305.3 393.5,307.5 395.0,309.6 396.5,311.7 398.0,313.7 399.5,315.7 401.0,317.7 402.5,319.6 404.0,321.5 405.5,323.3 407.0,325.0 408.5,326.7 410.0,328.3" fill="none" stroke="#8A93A0" stroke-width="1.5" stroke-dasharray="4,3" stroke-linejoin="round"/><polyline points="110.0,337.5 111.5,337.5 113.0,337.5 114.5,337.5 116.0,337.5 117.5,337.5 117.5,305.0 119.0,305.0 120.5,305.0 122.0,305.0 123.5,305.0 125.0,305.0 126.5,305.0 128.0,305.0 129.5,305.0 131.0,305.0 132.5,305.0 134.0,305.0 135.5,305.0 137.0,305.0 138.5,305.0 140.0,305.0 140.0,272.5 141.5,272.5 143.0,272.5 144.5,272.5 146.0,272.5 147.5,272.5 149.0,272.5 150.5,272.5 152.0,272.5 153.5,272.5 155.0,272.5 156.5,272.5 158.0,272.5 158.0,240.0 159.5,240.0 161.0,240.0 162.5,240.0 164.0,240.0 165.5,240.0 167.0,240.0 168.5,240.0 170.0,240.0 171.5,240.0 173.0,240.0 174.5,240.0 176.0,240.0 176.0,207.5 177.5,207.5 179.0,207.5 180.5,207.5 182.0,207.5 183.5,207.5 185.0,207.5 186.5,207.5 188.0,207.5 189.5,207.5 191.0,207.5 192.5,207.5 194.0,207.5 194.0,175.0 195.5,175.0 197.0,175.0 198.5,175.0 200.0,175.0 201.5,175.0 203.0,175.0 204.5,175.0 206.0,175.0 207.5,175.0 209.0,175.0 210.5,175.0 212.0,175.0 213.5,175.0 215.0,175.0 216.5,175.0 216.5,142.5 218.0,142.5 219.5,142.5 221.0,142.5 222.5,142.5 224.0,142.5 225.5,142.5 227.0,142.5 228.5,142.5 230.0,142.5 231.5,142.5 233.0,142.5 234.5,142.5 236.0,142.5 237.5,142.5 239.0,142.5 240.5,142.5 242.0,142.5 243.5,142.5 245.0,142.5 246.5,142.5 248.0,142.5 249.5,142.5 251.0,142.5 252.5,142.5 254.0,142.5 255.5,142.5 257.0,142.5 258.5,142.5 260.0,142.5 261.5,142.5 263.0,142.5 264.5,142.5 266.0,142.5 267.5,142.5 269.0,142.5 270.5,142.5 272.0,142.5 273.5,142.5 275.0,142.5 276.5,142.5 278.0,142.5 279.5,142.5 281.0,142.5 282.5,142.5 284.0,142.5 285.5,142.5 287.0,142.5 288.5,142.5 290.0,142.5 291.5,142.5 293.0,142.5 294.5,142.5 296.0,142.5 297.5,142.5 299.0,142.5 300.5,142.5 302.0,142.5 303.5,142.5 305.0,142.5 305.0,175.0 306.5,175.0 308.0,175.0 309.5,175.0 311.0,175.0 312.5,175.0 314.0,175.0 315.5,175.0 317.0,175.0 318.5,175.0 320.0,175.0 321.5,175.0 323.0,175.0 324.5,175.0 326.0,175.0 327.5,175.0 327.5,207.5 329.0,207.5 330.5,207.5 332.0,207.5 333.5,207.5 335.0,207.5 336.5,207.5 338.0,207.5 339.5,207.5 341.0,207.5 342.5,207.5 344.0,207.5 345.5,207.5 345.5,240.0 347.0,240.0 348.5,240.0 350.0,240.0 351.5,240.0 353.0,240.0 354.5,240.0 356.0,240.0 357.5,240.0 359.0,240.0 360.5,240.0 362.0,240.0 363.5,240.0 363.5,272.5 365.0,272.5 366.5,272.5 368.0,272.5 369.5,272.5 371.0,272.5 372.5,272.5 374.0,272.5 375.5,272.5 377.0,272.5 378.5,272.5 380.0,272.5 381.5,272.5 381.5,305.0 383.0,305.0 384.5,305.0 386.0,305.0 387.5,305.0 389.0,305.0 390.5,305.0 392.0,305.0 393.5,305.0 395.0,305.0 396.5,305.0 398.0,305.0 399.5,305.0 401.0,305.0 402.5,305.0 404.0,305.0 404.0,337.5 405.5,337.5 407.0,337.5 408.5,337.5 410.0,337.5" fill="none" stroke="#B4423A" stroke-width="2.5" stroke-linejoin="round"/><line x1="110" y1="370.0" x2="410" y2="370.0" stroke="#D8D4CA" stroke-width="0.6" stroke-linecap="butt"/><line x1="110" y1="337.5" x2="410" y2="337.5" stroke="#D8D4CA" stroke-width="0.6" stroke-linecap="butt"/><line x1="110" y1="305.0" x2="410" y2="305.0" stroke="#D8D4CA" stroke-width="0.6" stroke-linecap="butt"/><line x1="110" y1="272.5" x2="410" y2="272.5" stroke="#D8D4CA" stroke-width="0.6" stroke-linecap="butt"/><line x1="110" y1="240.0" x2="410" y2="240.0" stroke="#D8D4CA" stroke-width="0.6" stroke-linecap="butt"/><line x1="110" y1="207.5" x2="410" y2="207.5" stroke="#D8D4CA" stroke-width="0.6" stroke-linecap="butt"/><line x1="110" y1="175.0" x2="410" y2="175.0" stroke="#D8D4CA" stroke-width="0.6" stroke-linecap="butt"/><line x1="110" y1="142.5" x2="410" y2="142.5" stroke="#D8D4CA" stroke-width="0.6" stroke-linecap="butt"/><line x1="110" y1="110.0" x2="410" y2="110.0" stroke="#D8D4CA" stroke-width="0.6" stroke-linecap="butt"/><text x="260.0" y="396" font-size="13" fill="#B4423A" text-anchor="middle" font-weight="bold" font-style="normal" font-family="Helvetica, Arial, sans-serif">3-bit → 8 steps</text><text x="650.0" y="94" font-size="15" fill="#1E2530" text-anchor="middle" font-weight="bold" font-style="normal" font-family="Helvetica, Arial, sans-serif">Higher resolution (illustrative)</text><line x1="500" y1="370" x2="800" y2="370" stroke="#1E2530" stroke-width="1.5" stroke-linecap="butt"/><line x1="500" y1="110" x2="500" y2="370" stroke="#1E2530" stroke-width="1.5" stroke-linecap="butt"/><polyline points="500.0,328.3 501.5,326.7 503.0,325.0 504.5,323.3 506.0,321.5 507.5,319.6 509.0,317.7 510.5,315.7 512.0,313.7 513.5,311.7 515.0,309.6 516.5,307.5 518.0,305.3 519.5,303.1 521.0,300.8 522.5,298.5 524.0,296.2 525.5,293.8 527.0,291.4 528.5,289.0 530.0,286.5 531.5,284.0 533.0,281.5 534.5,278.9 536.0,276.3 537.5,273.7 539.0,271.1 540.5,268.5 542.0,265.8 543.5,263.2 545.0,260.5 546.5,257.8 548.0,255.0 549.5,252.3 551.0,249.6 552.5,246.9 554.0,244.1 555.5,241.4 557.0,238.6 558.5,235.9 560.0,233.1 561.5,230.4 563.0,227.7 564.5,225.0 566.0,222.2 567.5,219.5 569.0,216.8 570.5,214.2 572.0,211.5 573.5,208.9 575.0,206.3 576.5,203.7 578.0,201.1 579.5,198.5 581.0,196.0 582.5,193.5 584.0,191.0 585.5,188.6 587.0,186.2 588.5,183.8 590.0,181.5 591.5,179.2 593.0,176.9 594.5,174.7 596.0,172.5 597.5,170.4 599.0,168.3 600.5,166.3 602.0,164.3 603.5,162.3 605.0,160.4 606.5,158.5 608.0,156.7 609.5,155.0 611.0,153.3 612.5,151.7 614.0,150.1 615.5,148.5 617.0,147.1 618.5,145.7 620.0,144.3 621.5,143.0 623.0,141.8 624.5,140.6 626.0,139.5 627.5,138.5 629.0,137.5 630.5,136.6 632.0,135.7 633.5,134.9 635.0,134.2 636.5,133.6 638.0,133.0 639.5,132.5 641.0,132.0 642.5,131.7 644.0,131.4 645.5,131.1 647.0,130.9 648.5,130.8 650.0,130.8 651.5,130.8 653.0,130.9 654.5,131.1 656.0,131.4 657.5,131.7 659.0,132.0 660.5,132.5 662.0,133.0 663.5,133.6 665.0,134.2 666.5,134.9 668.0,135.7 669.5,136.6 671.0,137.5 672.5,138.5 674.0,139.5 675.5,140.6 677.0,141.8 678.5,143.0 680.0,144.3 681.5,145.7 683.0,147.1 684.5,148.5 686.0,150.1 687.5,151.7 689.0,153.3 690.5,155.0 692.0,156.7 693.5,158.5 695.0,160.4 696.5,162.3 698.0,164.3 699.5,166.3 701.0,168.3 702.5,170.4 704.0,172.5 705.5,174.7 707.0,176.9 708.5,179.2 710.0,181.5 711.5,183.8 713.0,186.2 714.5,188.6 716.0,191.0 717.5,193.5 719.0,196.0 720.5,198.5 722.0,201.1 723.5,203.7 725.0,206.3 726.5,208.9 728.0,211.5 729.5,214.2 731.0,216.8 732.5,219.5 734.0,222.2 735.5,225.0 737.0,227.7 738.5,230.4 740.0,233.1 741.5,235.9 743.0,238.6 744.5,241.4 746.0,244.1 747.5,246.9 749.0,249.6 750.5,252.3 752.0,255.0 753.5,257.8 755.0,260.5 756.5,263.2 758.0,265.8 759.5,268.5 761.0,271.1 762.5,273.7 764.0,276.3 765.5,278.9 767.0,281.5 768.5,284.0 770.0,286.5 771.5,289.0 773.0,291.4 774.5,293.8 776.0,296.2 777.5,298.5 779.0,300.8 780.5,303.1 782.0,305.3 783.5,307.5 785.0,309.6 786.5,311.7 788.0,313.7 789.5,315.7 791.0,317.7 792.5,319.6 794.0,321.5 795.5,323.3 797.0,325.0 798.5,326.7 800.0,328.3" fill="none" stroke="#8A93A0" stroke-width="1.5" stroke-dasharray="4,3" stroke-linejoin="round"/><polyline points="500.0,329.4 501.5,329.4 503.0,329.4 503.0,321.2 504.5,321.2 506.0,321.2 507.5,321.2 509.0,321.2 510.5,321.2 510.5,313.1 512.0,313.1 513.5,313.1 515.0,313.1 516.5,313.1 516.5,305.0 518.0,305.0 519.5,305.0 521.0,305.0 521.0,296.9 522.5,296.9 524.0,296.9 525.5,296.9 527.0,296.9 527.0,288.8 528.5,288.8 530.0,288.8 531.5,288.8 531.5,280.6 533.0,280.6 534.5,280.6 536.0,280.6 536.0,272.5 537.5,272.5 539.0,272.5 540.5,272.5 542.0,272.5 542.0,264.4 543.5,264.4 545.0,264.4 546.5,264.4 546.5,256.2 548.0,256.2 549.5,256.2 551.0,256.2 551.0,248.1 552.5,248.1 554.0,248.1 555.5,248.1 555.5,240.0 557.0,240.0 558.5,240.0 558.5,231.9 560.0,231.9 561.5,231.9 563.0,231.9 563.0,223.8 564.5,223.8 566.0,223.8 567.5,223.8 567.5,215.6 569.0,215.6 570.5,215.6 572.0,215.6 572.0,207.5 573.5,207.5 575.0,207.5 576.5,207.5 578.0,207.5 578.0,199.4 579.5,199.4 581.0,199.4 582.5,199.4 582.5,191.2 584.0,191.2 585.5,191.2 587.0,191.2 587.0,183.1 588.5,183.1 590.0,183.1 591.5,183.1 593.0,183.1 593.0,175.0 594.5,175.0 596.0,175.0 597.5,175.0 597.5,166.9 599.0,166.9 600.5,166.9 602.0,166.9 603.5,166.9 603.5,158.8 605.0,158.8 606.5,158.8 608.0,158.8 609.5,158.8 611.0,158.8 611.0,150.6 612.5,150.6 614.0,150.6 615.5,150.6 617.0,150.6 618.5,150.6 618.5,142.5 620.0,142.5 621.5,142.5 623.0,142.5 624.5,142.5 626.0,142.5 627.5,142.5 629.0,142.5 629.0,134.4 630.5,134.4 632.0,134.4 633.5,134.4 635.0,134.4 636.5,134.4 638.0,134.4 639.5,134.4 641.0,134.4 642.5,134.4 644.0,134.4 645.5,134.4 647.0,134.4 648.5,134.4 650.0,134.4 651.5,134.4 653.0,134.4 654.5,134.4 656.0,134.4 657.5,134.4 659.0,134.4 660.5,134.4 662.0,134.4 663.5,134.4 665.0,134.4 666.5,134.4 668.0,134.4 669.5,134.4 671.0,134.4 672.5,134.4 672.5,142.5 674.0,142.5 675.5,142.5 677.0,142.5 678.5,142.5 680.0,142.5 681.5,142.5 683.0,142.5 683.0,150.6 684.5,150.6 686.0,150.6 687.5,150.6 689.0,150.6 690.5,150.6 690.5,158.8 692.0,158.8 693.5,158.8 695.0,158.8 696.5,158.8 698.0,158.8 698.0,166.9 699.5,166.9 701.0,166.9 702.5,166.9 704.0,166.9 704.0,175.0 705.5,175.0 707.0,175.0 708.5,175.0 708.5,183.1 710.0,183.1 711.5,183.1 713.0,183.1 714.5,183.1 714.5,191.2 716.0,191.2 717.5,191.2 719.0,191.2 719.0,199.4 720.5,199.4 722.0,199.4 723.5,199.4 723.5,207.5 725.0,207.5 726.5,207.5 728.0,207.5 729.5,207.5 729.5,215.6 731.0,215.6 732.5,215.6 734.0,215.6 734.0,223.8 735.5,223.8 737.0,223.8 738.5,223.8 738.5,231.9 740.0,231.9 741.5,231.9 743.0,231.9 743.0,240.0 744.5,240.0 746.0,240.0 746.0,248.1 747.5,248.1 749.0,248.1 750.5,248.1 750.5,256.2 752.0,256.2 753.5,256.2 755.0,256.2 755.0,264.4 756.5,264.4 758.0,264.4 759.5,264.4 759.5,272.5 761.0,272.5 762.5,272.5 764.0,272.5 765.5,272.5 765.5,280.6 767.0,280.6 768.5,280.6 770.0,280.6 770.0,288.8 771.5,288.8 773.0,288.8 774.5,288.8 774.5,296.9 776.0,296.9 777.5,296.9 779.0,296.9 780.5,296.9 780.5,305.0 782.0,305.0 783.5,305.0 785.0,305.0 785.0,313.1 786.5,313.1 788.0,313.1 789.5,313.1 791.0,313.1 791.0,321.2 792.5,321.2 794.0,321.2 795.5,321.2 797.0,321.2 798.5,321.2 798.5,329.4 800.0,329.4" fill="none" stroke="#4E7A4E" stroke-width="2.5" stroke-linejoin="round"/><line x1="500" y1="370.0" x2="800" y2="370.0" stroke="#D8D4CA" stroke-width="0.6" stroke-linecap="butt"/><line x1="500" y1="361.875" x2="800" y2="361.875" stroke="#D8D4CA" stroke-width="0.6" stroke-linecap="butt"/><line x1="500" y1="353.75" x2="800" y2="353.75" stroke="#D8D4CA" stroke-width="0.6" stroke-linecap="butt"/><line x1="500" y1="345.625" x2="800" y2="345.625" stroke="#D8D4CA" stroke-width="0.6" stroke-linecap="butt"/><line x1="500" y1="337.5" x2="800" y2="337.5" stroke="#D8D4CA" stroke-width="0.6" stroke-linecap="butt"/><line x1="500" y1="329.375" x2="800" y2="329.375" stroke="#D8D4CA" stroke-width="0.6" stroke-linecap="butt"/><line x1="500" y1="321.25" x2="800" y2="321.25" stroke="#D8D4CA" stroke-width="0.6" stroke-linecap="butt"/><line x1="500" y1="313.125" x2="800" y2="313.125" stroke="#D8D4CA" stroke-width="0.6" stroke-linecap="butt"/><line x1="500" y1="305.0" x2="800" y2="305.0" stroke="#D8D4CA" stroke-width="0.6" stroke-linecap="butt"/><line x1="500" y1="296.875" x2="800" y2="296.875" stroke="#D8D4CA" stroke-width="0.6" stroke-linecap="butt"/><line x1="500" y1="288.75" x2="800" y2="288.75" stroke="#D8D4CA" stroke-width="0.6" stroke-linecap="butt"/><line x1="500" y1="280.625" x2="800" y2="280.625" stroke="#D8D4CA" stroke-width="0.6" stroke-linecap="butt"/><line x1="500" y1="272.5" x2="800" y2="272.5" stroke="#D8D4CA" stroke-width="0.6" stroke-linecap="butt"/><line x1="500" y1="264.375" x2="800" y2="264.375" stroke="#D8D4CA" stroke-width="0.6" stroke-linecap="butt"/><line x1="500" y1="256.25" x2="800" y2="256.25" stroke="#D8D4CA" stroke-width="0.6" stroke-linecap="butt"/><line x1="500" y1="248.125" x2="800" y2="248.125" stroke="#D8D4CA" stroke-width="0.6" stroke-linecap="butt"/><line x1="500" y1="240.0" x2="800" y2="240.0" stroke="#D8D4CA" stroke-width="0.6" stroke-linecap="butt"/><line x1="500" y1="231.875" x2="800" y2="231.875" stroke="#D8D4CA" stroke-width="0.6" stroke-linecap="butt"/><line x1="500" y1="223.75" x2="800" y2="223.75" stroke="#D8D4CA" stroke-width="0.6" stroke-linecap="butt"/><line x1="500" y1="215.625" x2="800" y2="215.625" stroke="#D8D4CA" stroke-width="0.6" stroke-linecap="butt"/><line x1="500" y1="207.5" x2="800" y2="207.5" stroke="#D8D4CA" stroke-width="0.6" stroke-linecap="butt"/><line x1="500" y1="199.375" x2="800" y2="199.375" stroke="#D8D4CA" stroke-width="0.6" stroke-linecap="butt"/><line x1="500" y1="191.25" x2="800" y2="191.25" stroke="#D8D4CA" stroke-width="0.6" stroke-linecap="butt"/><line x1="500" y1="183.125" x2="800" y2="183.125" stroke="#D8D4CA" stroke-width="0.6" stroke-linecap="butt"/><line x1="500" y1="175.0" x2="800" y2="175.0" stroke="#D8D4CA" stroke-width="0.6" stroke-linecap="butt"/><line x1="500" y1="166.875" x2="800" y2="166.875" stroke="#D8D4CA" stroke-width="0.6" stroke-linecap="butt"/><line x1="500" y1="158.75" x2="800" y2="158.75" stroke="#D8D4CA" stroke-width="0.6" stroke-linecap="butt"/><line x1="500" y1="150.625" x2="800" y2="150.625" stroke="#D8D4CA" stroke-width="0.6" stroke-linecap="butt"/><line x1="500" y1="142.5" x2="800" y2="142.5" stroke="#D8D4CA" stroke-width="0.6" stroke-linecap="butt"/><line x1="500" y1="134.375" x2="800" y2="134.375" stroke="#D8D4CA" stroke-width="0.6" stroke-linecap="butt"/><line x1="500" y1="126.25" x2="800" y2="126.25" stroke="#D8D4CA" stroke-width="0.6" stroke-linecap="butt"/><line x1="500" y1="118.125" x2="800" y2="118.125" stroke="#D8D4CA" stroke-width="0.6" stroke-linecap="butt"/><line x1="500" y1="110.0" x2="800" y2="110.0" stroke="#D8D4CA" stroke-width="0.6" stroke-linecap="butt"/><text x="650.0" y="396" font-size="13" fill="#4E7A4E" text-anchor="middle" font-weight="bold" font-style="normal" font-family="Helvetica, Arial, sans-serif">5-bit → 32 steps</text><text x="110" y="430" font-size="12.5" fill="#5A6270" text-anchor="start" font-weight="normal" font-style="normal" font-family="Helvetica, Arial, sans-serif">Dashed grey = the true analog signal. The colored staircase = what the ADC actually records.</text><text x="110" y="450" font-size="12.5" fill="#5A6270" text-anchor="start" font-weight="normal" font-style="normal" font-family="Helvetica, Arial, sans-serif">With few steps the pedal moves in visible jumps; with more steps the staircase hugs the real curve.</text><rect x="840" y="110" width="240" height="300" rx="8" fill="#EFEBE1" stroke="#1E2530" stroke-width="1.5" opacity="1"/><text x="858" y="138" font-size="14" fill="#1E2530" text-anchor="start" font-weight="bold" font-style="normal" font-family="Helvetica, Arial, sans-serif">In practice</text><text x="858" y="162" font-size="12" fill="#1E2530" text-anchor="start" font-weight="normal" font-style="normal" font-family="Helvetica, Arial, sans-serif">Real pedals use 12-bit</text><text x="858" y="179" font-size="12" fill="#1E2530" text-anchor="start" font-weight="normal" font-style="normal" font-family="Helvetica, Arial, sans-serif">(4096 steps) for pots/Hall</text><text x="858" y="196" font-size="12" fill="#1E2530" text-anchor="start" font-weight="normal" font-style="normal" font-family="Helvetica, Arial, sans-serif">and 16-bit+ for load cells,</text><text x="858" y="213" font-size="12" fill="#1E2530" text-anchor="start" font-weight="normal" font-style="normal" font-family="Helvetica, Arial, sans-serif">whose raw signal is tiny.</text><text x="858" y="230" font-size="12" fill="#1E2530" text-anchor="start" font-weight="normal" font-style="normal" font-family="Helvetica, Arial, sans-serif"></text><text x="858" y="247" font-size="12" fill="#1E2530" text-anchor="start" font-weight="normal" font-style="normal" font-family="Helvetica, Arial, sans-serif">But more bits only help if</text><text x="858" y="264" font-size="12" fill="#1E2530" text-anchor="start" font-weight="normal" font-style="normal" font-family="Helvetica, Arial, sans-serif">the signal is clean:</text><text x="858" y="281" font-size="12" fill="#1E2530" text-anchor="start" font-weight="normal" font-style="normal" font-family="Helvetica, Arial, sans-serif">• stable reference voltage</text><text x="858" y="298" font-size="12" fill="#1E2530" text-anchor="start" font-weight="normal" font-style="normal" font-family="Helvetica, Arial, sans-serif">• good analog + digital</text><text x="858" y="315" font-size="12" fill="#1E2530" text-anchor="start" font-weight="normal" font-style="normal" font-family="Helvetica, Arial, sans-serif">   filtering</text><text x="858" y="332" font-size="12" fill="#1E2530" text-anchor="start" font-weight="normal" font-style="normal" font-family="Helvetica, Arial, sans-serif">• low electrical noise</text><text x="858" y="349" font-size="12" fill="#1E2530" text-anchor="start" font-weight="normal" font-style="normal" font-family="Helvetica, Arial, sans-serif"></text><text x="858" y="366" font-size="12" fill="#1E2530" text-anchor="start" font-weight="normal" font-style="normal" font-family="Helvetica, Arial, sans-serif">Otherwise the extra bits</text><text x="858" y="383" font-size="12" fill="#1E2530" text-anchor="start" font-weight="normal" font-style="normal" font-family="Helvetica, Arial, sans-serif">just digitize noise.</text></svg>