<svg xmlns="http://www.w3.org/2000/svg" viewBox="0 0 980 700" font-family="Helvetica, Arial, sans-serif">
<rect x="0" y="0" width="900" height="700" fill="#F7F5F0"/><path d="M 112,350 A 228,228 0 1 0 568,350 A 228,228 0 1 0 112,350 Z M 144,350 A 196,196 0 1 0 536,350 A 196,196 0 1 0 144,350 Z" fill="#B9C2CC" stroke="#1E2530" stroke-width="2" fill-rule="evenodd"/><path d="M 530.58,304.24 A 196.00,196.00 0 0 1 530.58,395.76 L 468.35,380.81 A 132.00,132.00 0 0 0 468.35,319.19 Z" fill="#C97A3E" stroke="#8F4E23" stroke-width="1.5" opacity="0.95"/><path d="M 537.91,329.20 A 199.00,199.00 0 0 1 537.91,370.80 L 467.30,363.38 A 128.00,128.00 0 0 0 467.30,336.62 Z" fill="#B9C2CC" stroke="#1E2530" stroke-width="1.5"/><path d="M 527.93,405.67 A 196.00,196.00 0 0 1 482.17,484.92 L 435.75,440.86 A 132.00,132.00 0 0 0 466.56,387.49 Z" fill="#C97A3E" stroke="#8F4E23" stroke-width="1.5" opacity="0.95"/><path d="M 521.80,430.94 A 199.00,199.00 0 0 1 500.99,466.97 L 443.55,425.24 A 128.00,128.00 0 0 0 456.93,402.06 Z" fill="#B9C2CC" stroke="#1E2530" stroke-width="1.5"/><path d="M 474.92,492.17 A 196.00,196.00 0 0 1 395.67,537.93 L 377.49,476.56 A 132.00,132.00 0 0 0 430.86,445.75 Z" fill="#C97A3E" stroke="#8F4E23" stroke-width="1.5" opacity="0.95"/><path d="M 456.97,510.99 A 199.00,199.00 0 0 1 420.94,531.80 L 392.06,466.93 A 128.00,128.00 0 0 0 415.24,453.55 Z" fill="#B9C2CC" stroke="#1E2530" stroke-width="1.5"/><path d="M 385.76,540.58 A 196.00,196.00 0 0 1 294.24,540.58 L 309.19,478.35 A 132.00,132.00 0 0 0 370.81,478.35 Z" fill="#C97A3E" stroke="#8F4E23" stroke-width="1.5" opacity="0.95"/><path d="M 360.80,547.91 A 199.00,199.00 0 0 1 319.20,547.91 L 326.62,477.30 A 128.00,128.00 0 0 0 353.38,477.30 Z" fill="#B9C2CC" stroke="#1E2530" stroke-width="1.5"/><path d="M 284.33,537.93 A 196.00,196.00 0 0 1 205.08,492.17 L 249.14,445.75 A 132.00,132.00 0 0 0 302.51,476.56 Z" fill="#C97A3E" stroke="#8F4E23" stroke-width="1.5" opacity="0.95"/><path d="M 259.06,531.80 A 199.00,199.00 0 0 1 223.03,510.99 L 264.76,453.55 A 128.00,128.00 0 0 0 287.94,466.93 Z" fill="#B9C2CC" stroke="#1E2530" stroke-width="1.5"/><path d="M 197.83,484.92 A 196.00,196.00 0 0 1 152.07,405.67 L 213.44,387.49 A 132.00,132.00 0 0 0 244.25,440.86 Z" fill="#C97A3E" stroke="#8F4E23" stroke-width="1.5" opacity="0.95"/><path d="M 179.01,466.97 A 199.00,199.00 0 0 1 158.20,430.94 L 223.07,402.06 A 128.00,128.00 0 0 0 236.45,425.24 Z" fill="#B9C2CC" stroke="#1E2530" stroke-width="1.5"/><path d="M 149.42,395.76 A 196.00,196.00 0 0 1 149.42,304.24 L 211.65,319.19 A 132.00,132.00 0 0 0 211.65,380.81 Z" fill="#C97A3E" stroke="#8F4E23" stroke-width="1.5" opacity="0.95"/><path d="M 142.09,370.80 A 199.00,199.00 0 0 1 142.09,329.20 L 212.70,336.62 A 128.00,128.00 0 0 0 212.70,363.38 Z" fill="#B9C2CC" stroke="#1E2530" stroke-width="1.5"/><path d="M 152.07,294.33 A 196.00,196.00 0 0 1 197.83,215.08 L 244.25,259.14 A 132.00,132.00 0 0 0 213.44,312.51 Z" fill="#C97A3E" stroke="#8F4E23" stroke-width="1.5" opacity="0.95"/><path d="M 158.20,269.06 A 199.00,199.00 0 0 1 179.01,233.03 L 236.45,274.76 A 128.00,128.00 0 0 0 223.07,297.94 Z" fill="#B9C2CC" stroke="#1E2530" stroke-width="1.5"/><path d="M 205.08,207.83 A 196.00,196.00 0 0 1 284.33,162.07 L 302.51,223.44 A 132.00,132.00 0 0 0 249.14,254.25 Z" fill="#C97A3E" stroke="#8F4E23" stroke-width="1.5" opacity="0.95"/><path d="M 223.03,189.01 A 199.00,199.00 0 0 1 259.06,168.20 L 287.94,233.07 A 128.00,128.00 0 0 0 264.76,246.45 Z" fill="#B9C2CC" stroke="#1E2530" stroke-width="1.5"/><path d="M 294.24,159.42 A 196.00,196.00 0 0 1 385.76,159.42 L 370.81,221.65 A 132.00,132.00 0 0 0 309.19,221.65 Z" fill="#C97A3E" stroke="#8F4E23" stroke-width="1.5" opacity="0.95"/><path d="M 319.20,152.09 A 199.00,199.00 0 0 1 360.80,152.09 L 353.38,222.70 A 128.00,128.00 0 0 0 326.62,222.70 Z" fill="#B9C2CC" stroke="#1E2530" stroke-width="1.5"/><path d="M 395.67,162.07 A 196.00,196.00 0 0 1 474.92,207.83 L 430.86,254.25 A 132.00,132.00 0 0 0 377.49,223.44 Z" fill="#C97A3E" stroke="#8F4E23" stroke-width="1.5" opacity="0.95"/><path d="M 420.94,168.20 A 199.00,199.00 0 0 1 456.97,189.01 L 415.24,246.45 A 128.00,128.00 0 0 0 392.06,233.07 Z" fill="#B9C2CC" stroke="#1E2530" stroke-width="1.5"/><path d="M 482.17,215.08 A 196.00,196.00 0 0 1 527.93,294.33 L 466.56,312.51 A 132.00,132.00 0 0 0 435.75,259.14 Z" fill="#C97A3E" stroke="#8F4E23" stroke-width="1.5" opacity="0.95"/><path d="M 500.99,233.03 A 199.00,199.00 0 0 1 521.80,269.06 L 456.93,297.94 A 128.00,128.00 0 0 0 443.55,274.76 Z" fill="#B9C2CC" stroke="#1E2530" stroke-width="1.5"/><circle cx="340" cy="350" r="124" fill="none" stroke="#1E2530" stroke-width="1" stroke-dasharray="3,4" opacity="0.6"/><path d="M 460.00,350.00 A 120.00,120.00 0 0 1 424.85,434.85 L 371.11,381.11 A 44.00,44.00 0 0 0 384.00,350.00 Z" fill="#B4423A" stroke="#1E2530" stroke-width="1.5"/><text x="415.8" y="386.4" font-family="Georgia, serif" font-size="20" font-weight="bold" fill="white" text-anchor="middle">N</text><path d="M 424.85,434.85 A 120.00,120.00 0 0 1 340.00,470.00 L 340.00,394.00 A 44.00,44.00 0 0 0 371.11,381.11 Z" fill="#33587D" stroke="#1E2530" stroke-width="1.5"/><text x="371.4" y="430.8" font-family="Georgia, serif" font-size="20" font-weight="bold" fill="white" text-anchor="middle">S</text><path d="M 340.00,470.00 A 120.00,120.00 0 0 1 255.15,434.85 L 308.89,381.11 A 44.00,44.00 0 0 0 340.00,394.00 Z" fill="#B4423A" stroke="#1E2530" stroke-width="1.5"/><text x="308.6" y="430.8" font-family="Georgia, serif" font-size="20" font-weight="bold" fill="white" text-anchor="middle">N</text><path d="M 255.15,434.85 A 120.00,120.00 0 0 1 220.00,350.00 L 296.00,350.00 A 44.00,44.00 0 0 0 308.89,381.11 Z" fill="#33587D" stroke="#1E2530" stroke-width="1.5"/><text x="264.2" y="386.4" font-family="Georgia, serif" font-size="20" font-weight="bold" fill="white" text-anchor="middle">S</text><path d="M 220.00,350.00 A 120.00,120.00 0 0 1 255.15,265.15 L 308.89,318.89 A 44.00,44.00 0 0 0 296.00,350.00 Z" fill="#B4423A" stroke="#1E2530" stroke-width="1.5"/><text x="264.2" y="323.6" font-family="Georgia, serif" font-size="20" font-weight="bold" fill="white" text-anchor="middle">N</text><path d="M 255.15,265.15 A 120.00,120.00 0 0 1 340.00,230.00 L 340.00,306.00 A 44.00,44.00 0 0 0 308.89,318.89 Z" fill="#33587D" stroke="#1E2530" stroke-width="1.5"/><text x="308.6" y="279.2" font-family="Georgia, serif" font-size="20" font-weight="bold" fill="white" text-anchor="middle">S</text><path d="M 340.00,230.00 A 120.00,120.00 0 0 1 424.85,265.15 L 371.11,318.89 A 44.00,44.00 0 0 0 340.00,306.00 Z" fill="#B4423A" stroke="#1E2530" stroke-width="1.5"/><text x="371.4" y="279.2" font-family="Georgia, serif" font-size="20" font-weight="bold" fill="white" text-anchor="middle">N</text><path d="M 424.85,265.15 A 120.00,120.00 0 0 1 460.00,350.00 L 384.00,350.00 A 44.00,44.00 0 0 0 371.11,318.89 Z" fill="#33587D" stroke="#1E2530" stroke-width="1.5"/><text x="415.8" y="323.6" font-family="Georgia, serif" font-size="20" font-weight="bold" fill="white" text-anchor="middle">S</text><circle cx="340" cy="350" r="40" fill="#5B6470" stroke="#1E2530" stroke-width="2"/><rect x="332" y="310" width="16" height="14" fill="#1E2530"/><circle cx="461.5982045064218" cy="176.33976661073373" r="3" fill="#1E2530"/><line x1="461.5982045064218" y1="176.33976661073373" x2="660" y2="130" stroke="#1E2530" stroke-width="1.3"/><text x="665" y="126" font-size="15" font-weight="bold" fill="#1E2530" text-anchor="start">Stator yoke</text><text x="665" y="146" font-size="13" font-weight="normal" fill="#1E2530" text-anchor="start">(laminated steel back-iron)</text><circle cx="489.5407848610472" cy="280.2679868127846" r="3" fill="#1E2530"/><line x1="489.5407848610472" y1="280.2679868127846" x2="700" y2="195" stroke="#1E2530" stroke-width="1.3"/><text x="705" y="191" font-size="15" font-weight="bold" fill="#1E2530" text-anchor="start">Stator tooth</text><text x="705" y="211" font-size="13" font-weight="normal" fill="#1E2530" text-anchor="start">(steel lamination stack)</text><circle cx="487.728169286974" cy="418.886776663734" r="3" fill="#1E2530"/><line x1="487.728169286974" y1="418.886776663734" x2="700" y2="262" stroke="#1E2530" stroke-width="1.3"/><text x="705" y="258" font-size="15" font-weight="bold" fill="#1E2530" text-anchor="start">Stator winding</text><text x="705" y="278" font-size="13" font-weight="normal" fill="#1E2530" text-anchor="start">(copper, 3-phase, one coil per tooth)</text><circle cx="405.7099887649174" cy="455.15796392339684" r="3" fill="#1E2530"/><line x1="405.7099887649174" y1="455.15796392339684" x2="700" y2="330" stroke="#1E2530" stroke-width="1.3"/><text x="705" y="326" font-size="15" font-weight="bold" fill="#1E2530" text-anchor="start">Air gap</text><text x="705" y="346" font-size="13" font-weight="normal" fill="#1E2530" text-anchor="start">(~0.5–1 mm, not to scale)</text><circle cx="371.38004145393734" cy="274.2418783340745" r="3" fill="#1E2530"/><line x1="371.38004145393734" y1="274.2418783340745" x2="700" y2="400" stroke="#1E2530" stroke-width="1.3"/><text x="705" y="396" font-size="15" font-weight="bold" fill="#1E2530" text-anchor="start">Rotor magnet – N pole</text><text x="705" y="416" font-size="13" font-weight="normal" fill="#1E2530" text-anchor="start">(surface-mounted permanent magnet)</text><circle cx="415.7581216659255" cy="318.61995854606266" r="3" fill="#1E2530"/><line x1="415.7581216659255" y1="318.61995854606266" x2="700" y2="462" stroke="#1E2530" stroke-width="1.3"/><text x="705" y="458" font-size="15" font-weight="bold" fill="#1E2530" text-anchor="start">Rotor magnet – S pole</text><text x="705" y="478" font-size="13" font-weight="normal" fill="#1E2530" text-anchor="start">(4 pole pairs shown here = 8 poles)</text><line x1="340" y1="310" x2="340" y2="555" stroke="#1E2530" stroke-width="1.3"/><circle cx="340" cy="310" r="3" fill="#1E2530"/><text x="340" y="575" font-size="15" font-weight="bold" fill="#1E2530" text-anchor="middle">Shaft</text><text x="340" y="595" font-size="13" font-weight="normal" fill="#1E2530" text-anchor="middle">(to encoder + steering coupling)</text><text x="30" y="45" font-size="22" font-weight="bold" fill="#1E2530" text-anchor="start">Direct-drive servo motor — simplified cross-section</text><text x="30" y="70" font-size="14" font-weight="normal" fill="#1E2530" text-anchor="start">12-slot / 8-pole PMSM (schematic, not a specific product)</text><text x="30" y="70" font-size="14" fill="#555">12-slot / 8-pole PMSM (schematic, not a specific product)</text>
</svg>